<?xml version="1.0" encoding="UTF-8" standalone="no"?>
<!-- Generator: Adobe Illustrator 16.0.0, SVG Export Plug-In . SVG Version: 6.00 Build 0)  -->

<svg
   xmlns:dc="http://purl.org/dc/elements/1.1/"
   xmlns:cc="http://creativecommons.org/ns#"
   xmlns:rdf="http://www.w3.org/1999/02/22-rdf-syntax-ns#"
   xmlns:svg="http://www.w3.org/2000/svg"
   xmlns="http://www.w3.org/2000/svg"
   xmlns:sodipodi="http://sodipodi.sourceforge.net/DTD/sodipodi-0.dtd"
   xmlns:inkscape="http://www.inkscape.org/namespaces/inkscape"
   version="1.1"
   id="Layer_1"
   x="0px"
   y="0px"
   width="128px"
   height="128px"
   viewBox="0 0 128 128"
   enable-background="new 0 0 128 128"
   xml:space="preserve"
   sodipodi:docname="qgis-ca-icon-black128.svg"
   inkscape:version="0.92.5 (2060ec1f9f, 2020-04-08)"><metadata
   id="metadata13"><rdf:RDF><cc:Work
       rdf:about=""><dc:format>image/svg+xml</dc:format><dc:type
         rdf:resource="http://purl.org/dc/dcmitype/StillImage" /></cc:Work></rdf:RDF></metadata><defs
   id="defs11" /><sodipodi:namedview
   pagecolor="#ffffff"
   bordercolor="#666666"
   borderopacity="1"
   objecttolerance="10"
   gridtolerance="10"
   guidetolerance="10"
   inkscape:pageopacity="0"
   inkscape:pageshadow="2"
   inkscape:window-width="1024"
   inkscape:window-height="1010"
   id="namedview9"
   showgrid="false"
   inkscape:zoom="1.84375"
   inkscape:cx="26.751759"
   inkscape:cy="47.945586"
   inkscape:window-x="0"
   inkscape:window-y="34"
   inkscape:window-maximized="0"
   inkscape:current-layer="Layer_1" />
<path
   inkscape:connector-curvature="0"
   style="fill:#000000;stroke-width:0.28740036;fill-opacity:1"
   d="M 64.923,99.551998 64.077114,83.330736 c -0.05248,-1.139452 0.962256,-2.035353 2.086441,-1.842043 l 16.146052,2.838282 -2.180392,-6.014833 c -0.181375,-0.490697 -0.03027,-1.04242 0.375953,-1.372164 L 98.19254,62.61716 94.207715,60.75632 c -0.556879,-0.263112 -0.83079,-0.899589 -0.639133,-1.484899 L 97.06475,48.519904 86.877132,50.681488 c -0.569092,0.118695 -1.142942,-0.18008 -1.372138,-0.714263 l -1.97364,-4.642707 -7.950829,8.533559 c -0.373441,0.393864 -0.961949,0.494161 -1.44473,0.246248 -0.482832,-0.247952 -0.7442,-0.784673 -0.641657,-1.317654 l 3.834454,-19.77374 -6.146416,3.552505 c -0.60963,0.35729 -1.394357,0.124511 -1.710487,-0.507523 L 63.231296,23.8027 56.990941,36.057913 c -0.316142,0.631995 -1.100856,0.864813 -1.710499,0.507523 l -6.146403,-3.552505 3.83444,19.77374 c 0.102566,0.532981 -0.158811,1.069702 -0.641644,1.317654 -0.482832,0.247913 -1.071288,0.147616 -1.444744,-0.246248 l -7.95088,-8.533559 -1.973601,4.642707 c -0.229169,0.534183 -0.80306,0.832919 -1.372112,0.714263 l -10.187633,-2.161584 3.496144,10.751517 c 0.191684,0.58531 -0.08222,1.221787 -0.639094,1.484899 l -3.984831,1.86084 17.687365,14.322818 c 0.406169,0.329744 0.557341,0.881467 0.375954,1.372164 l -2.180393,6.014833 16.146052,-2.838282 c 1.124199,-0.19331 2.138929,0.702591 2.086388,1.842043 l -0.84582,16.221262 z"
   id="path6-8" /><polygon
   points="68.613,69.625 86.891,69.625 71.697,54.625 52.613,54.625 52.613,72.746 68.613,88.548 "
   id="polygon2"
   style="stroke:#ffffff;stroke-opacity:1;stroke-width:1;stroke-miterlimit:4;stroke-dasharray:none" />
<polygon
   points="126.613,109.057 94.488,77.625 76.613,77.625 76.613,96.033 107.143,126.625 126.613,126.625 "
   id="polygon4" />
<path
   d="M68.923,101.552c-1.165,0.242-1.769,0.157-4.685,0.157c-20.866,0-38.612-17.158-38.612-39.406  c0-22.248,17.551-39.027,38.612-39.027s37.833,16.78,37.833,39.027c0,3.619-0.451,7.099-1.284,10.398L120.1,92.012  c4.979-8.726,7.765-18.869,7.765-29.857c0-34.289-27.363-59.963-64.016-59.963C27.363,2.191,0,27.696,0,62.154  c0,34.625,27.363,60.638,63.848,60.638c9.417,0,16.069-1.469,23.042-3.761L68.923,101.552z"
   id="path6" />
<polygon
   style="fill:#fdffff;fill-opacity:1"
   points="68.613,88.548 76.613,96.033 76.613,77.625 94.488,77.625 86.891,69.625 68.613,69.625 "
   id="polygon11" /></svg>